{
    "streams": [{
        "index": 0,
        "codec_name": "h264",
        "codec_long_name": "H.264 / AVC / MPEG-4 AVC / MPEG-4 part 10",
        "profile": "High",
        "codec_type": "video",
        "codec_time_base": "1001/60000",
        "codec_tag_string": "[27][0][0][0]",
        "codec_tag": "0x001b",
        "width": 720,
        "height": 480,
        "coded_width": 720,
        "coded_height": 480,
        "has_b_frames": 2,
        "sample_aspect_ratio": "32:27",
        "display_aspect_ratio": "16:9",
        "pix_fmt": "yuv420p",
        "level": 30,
        "chroma_location": "left",
        "field_order": "progressive",
        "refs": 1,
        "is_avc": "false",
        "nal_length_size": "0",
        "id": "0x100",
        "r_frame_rate": "30000/1001",
        "avg_frame_rate": "30000/1001",
        "time_base": "1/90000",
        "start_pts": 882757,
        "start_time": "9.808411",
        "duration_ts": 750750,
        "duration": "8.341667",
        "bits_per_raw_sample": "8",
        "disposition": {
            "default": 0,
            "dub": 0,
            "original": 0,
            "comment": 0,
            "lyrics": 0,
            "karaoke": 0,
            "forced": 0,
            "hearing_impaired": 0,
            "visual_impaired": 0,
            "clean_effects": 0,
            "attached_pic": 0,
            "timed_thumbnails": 0
        }
    }, {
        "index": 1,
        "codec_name": "aac",
        "codec_long_name": "AAC (Advanced Audio Coding)",
        "profile": "LC",
        "codec_type": "audio",
        "codec_time_base": "1/48000",
        "codec_tag_string": "[15][0][0][0]",
        "codec_tag": "0x000f",
        "sample_fmt": "fltp",
        "sample_rate": "48000",
        "channels": 2,
        "channel_layout": "stereo",
        "bits_per_sample": 0,
        "id": "0x101",
        "r_frame_rate": "0/0",
        "avg_frame_rate": "0/0",
        "time_base": "1/90000",
        "start_pts": 876996,
        "start_time": "9.744400",
        "duration_ts": 741120,
        "duration": "8.234667",
        "bit_rate": "129375",
        "disposition": {
            "default": 0,
            "dub": 0,
            "original": 0,
            "comment": 0,
            "lyrics": 0,
            "karaoke": 0,
            "forced": 0,
            "hearing_impaired": 0,
            "visual_impaired": 0,
            "clean_effects": 0,
            "attached_pic": 0,
            "timed_thumbnails": 0
        }
    }],
    "format": {
        "filename": "C:\\Users\\ShadowMimosa\\Documents\\GitRepository\\Top\\Top\\Python\\reptile\\down_mp4\\5beb9dce9c68d1a465fe122b\\index1.ts",
        "nb_streams": 2,
        "nb_programs": 1,
        "format_name": "mpegts",
        "format_long_name": "MPEG-TS (MPEG-2 Transport Stream)",
        "start_time": "9.744400",
        "duration": "8.405678",
        "size": "648788",
        "bit_rate": "617475",
        "probe_score": 50
    }
} {
    "streams": [{
        "index": 0,
        "codec_name": "h264",
        "codec_long_name": "H.264 / AVC / MPEG-4 AVC / MPEG-4 part 10",
        "profile": "High",
        "codec_type": "video",
        "codec_time_base": "1001/60000",
        "codec_tag_string": "avc1",
        "codec_tag": "0x31637661",
        "width": 720,
        "height": 480,
        "coded_width": 720,
        "coded_height": 480,
        "has_b_frames": 2,
        "sample_aspect_ratio": "32:27",
        "display_aspect_ratio": "16:9",
        "pix_fmt": "yuv420p",
        "level": 30,
        "chroma_location": "left",
        "refs": 1,
        "is_avc": "true",
        "nal_length_size": "4",
        "r_frame_rate": "30000/1001",
        "avg_frame_rate": "30000/1001",
        "time_base": "1/30000",
        "start_pts": 0,
        "start_time": "0.000000",
        "duration_ts": 36432396,
        "duration": "1214.413200",
        "bit_rate": "591271",
        "bits_per_raw_sample": "8",
        "nb_frames": "36396",
        "disposition": {
            "default": 1,
            "dub": 0,
            "original": 0,
            "comment": 0,
            "lyrics": 0,
            "karaoke": 0,
            "forced": 0,
            "hearing_impaired": 0,
            "visual_impaired": 0,
            "clean_effects": 0,
            "attached_pic": 0,
            "timed_thumbnails": 0
        },
        "tags": {
            "language": "und",
            "handler_name": "VideoHandler"
        }
    }, {
        "index": 1,
        "codec_name": "aac",
        "codec_long_name": "AAC (Advanced Audio Coding)",
        "profile": "LC",
        "codec_type": "audio",
        "codec_time_base": "1/48000",
        "codec_tag_string": "mp4a",
        "codec_tag": "0x6134706d",
        "sample_fmt": "fltp",
        "sample_rate": "48000",
        "channels": 2,
        "channel_layout": "stereo",
        "bits_per_sample": 0,
        "r_frame_rate": "0/0",
        "avg_frame_rate": "0/0",
        "time_base": "1/48000",
        "start_pts": 0,
        "start_time": "0.000000",
        "duration_ts": 58291200,
        "duration": "1214.400000",
        "bit_rate": "124890",
        "max_bit_rate": "128000",
        "nb_frames": "55276",
        "disposition": {
            "default": 1,
            "dub": 0,
            "original": 0,
            "comment": 0,
            "lyrics": 0,
            "karaoke": 0,
            "forced": 0,
            "hearing_impaired": 0,
            "visual_impaired": 0,
            "clean_effects": 0,
            "attached_pic": 0,
            "timed_thumbnails": 0
        },
        "tags": {
            "language": "und",
            "handler_name": "SoundHandler"
        }
    }],
    "format": {
        "filename": "C:\\Users\\ShadowMimosa\\Documents\\GitRepository\\Top\\Top\\Python\\reptile\\down_mp4\\5beb9dce9c68d1a465fe1243\\m3u8.mp4",
        "nb_streams": 2,
        "nb_programs": 0,
        "format_name": "mov,mp4,m4a,3gp,3g2,mj2",
        "format_long_name": "QuickTime / MOV",
        "start_time": "0.000000",
        "duration": "1214.422000",
        "size": "110011560",
        "bit_rate": "724700",
        "probe_score": 100,
        "tags": {
            "major_brand": "isom",
            "minor_version": "512",
            "compatible_brands": "isomiso2avc1mp41",
            "encoder": "Lavf58.26.101"
        }
    }
}